<svg xmlns="http://www.w3.org/2000/svg" viewBox="0 0 920 920">
  <path fill="#c52627"
    d="M112.57 297.9q26.27-56.03 67.24-99.34C244.2 130.5 327.1 88.73 420.27 78.72q3.15-.34 10.49-.77c4.69-.28 9.45-.92 13.99-.94q16.76-.08 33.51-.01c4.12.02 8.52.89 12.9 1.03 5.12.16 10.49.77 15.55 1.44 24.53 3.21 47.09 8.14 70.03 15.4 53.09 16.81 101.84 45.62 142.87 83.26q5.04 4.63 18.55 18.58c55.6 57.44 91.26 133.6 101.84 212.71a34.8 28.36 77.2 0 0 .94 4.83q.31 1.21.15 5.29c-.09 2.35.88 4.35.88 6.68-.01 5.97.95 12.38 1.03 17.72q.27 17.12-.03 34.24-.04 2.29-.65 7.36c-.45 3.66 0 7.35-.53 10.96q-.26 1.75-.44 3.51-6.38 60.09-30.92 115.21c-15.31 34.38-34.07 63.86-57.13 91.58-8.23 9.89-19.25 20.59-29.24 30.6-12.43 12.45-26.28 23.64-40.05 33.56q-77.31 55.65-172 68.9c-22.71 3.18-41.28 3.71-68.97 3.12-4.56-.1-9.69-.86-14.61-1q-2.29-.07-6.3-.68c-2.86-.43-5.79-.23-8.48-.65q-3.53-.55-11.15-1.67c-77.37-11.37-150.33-47.43-206.79-101.59-2.62-2.52-6.43-5.45-8.49-7.87-4.85-5.72-11.03-11.84-15.13-16.52C120.25 653.82 87.43 580.35 79 502q-.43-3.98-1.38-15.16c-1.21-14.31-.62-28.95-.62-43.32q.01-3.12.56-7.99c.4-3.58.45-7.61.73-10.7 4.08-43.94 15.54-86.96 34.28-126.93zm308.58 446.86c2.53.31 4.93.49 7.47.89q1.47.23 2.76.27c5.99.17 12.22 1 17.84 1.04q19.87.15 25.28-.03 12.47-.41 32.24-3.2 17.74-2.51 39.79-8.92 4.33-1.26 9.34-3.1c7.71-2.81 15.97-5.74 22.91-8.82q80.12-35.62 125.92-109.94c4.28-6.94 10.38-17.92 14.4-26.42q21.17-44.8 26.65-94.31 1.68-15.13 2.08-22.6.86-15.89-.65-33.89c-4.26-51.02-22.07-99.62-52.05-141.11q-16.58-22.95-29.74-35.76c-23.12-22.53-48.96-41.96-78.05-56.17q-43.59-21.3-91.84-27.68-4.28-.57-14.33-1.41c-10.96-.92-22.11-.59-33.17-.56q-7.56.02-30.38 3.04-31.65 4.19-66.15 18.76-5.24 2.21-10.45 4.47-5.75 2.48-10.28 4.82c-82.56 42.74-142.21 123.2-155.09 216.51-2.63 19-2.69 33.25-2.66 50.09.01 5.58.75 11.32 1.11 17.04.14 2.17.82 4.53.92 6.89q.14 3.32.5 5.13.59 2.95 1.02 5.9 7.89 53.88 34.5 100.91c43.81 77.42 122.08 127.38 210.11 138.16z" />
  <path fill="#c52627"
    d="M613.74 409.24c-.42 3.88.09 8.13-.2 11.69-.46 5.39-.57 11.02-1.23 16.06-8.11 62.51-37.99 117.71-94.76 148.84q-28.12 15.42-60.8 20.68-7.69 1.24-14.5 1.24-3.64.01-7.94.54-6.8.83-13.59-.17c-4.82-.71-9.43.03-13.97-.56q-21.75-2.81-42.25-8.48-1.94-.54.01-1.04.88-.22 2.72.18 3.82.84 7.77.86c2.03.01 4.34.96 6.7.91 7.12-.16 14.55 1.47 20.85 1.39 5.39-.07 10.79-1.33 15.85-1.35 3.16 0 5.94.29 9.08-.29 3.7-.68 7.47-1.2 10.99-2.03 41.65-9.87 82.5-27.15 109.11-62.38 16.71-22.14 27.89-50.11 32.34-77.33q1.17-7.15 1.52-15.74c1.45-35.72-10.74-74.64-35.46-101.06a.77.76 49.4 0 1 .08-1.12l84.1-67.41a.98.97-43.2 0 1 1.26.03c18.07 16.16 33.94 33.59 49.22 53.92q18.01 23.94 27.41 47.6 5.68 14.3 7.71 29.56.31 2.34.25 4.48a.76.76 0 0 1-.81.74q-6.81-.41-13.7-.4-43.35.11-87.13.07-.57 0-.63.57z" />
  <path fill="#c52627"
    d="M630.59 546.17c-1.36 1.04-2.44 2.96-3.24 4.01-40.04 52.23-101.84 92.64-168.74 97-3.46.22-7.04.75-10.32.81q-11.71.22-23.39-.67-3.63-.28-6.32-.31c-2.51-.03-5.83.36-8.19-.4q-1-.32-1.83-.39-10.81-.86-14.06-1.44c-18.55-3.3-33.06-6.31-48.74-12.04q-5.96-2.18-9.5-4.08c-6.19-3.33-12.3-6.49-19.01-8.65-5.36-1.73-7.54-5.93-12.27-7.95q-4.38-1.87-7.01-4.78-6.26-6.94-9.47-9.66a1.2 1.19 34.2 0 1-.28-1.46l.16-.3a.53.53 0 0 1 .8-.16c2.41 1.98 4.08 3.7 6.97 5.06q5.45 2.55 9.94 6.54c3.83 3.39 5.67 3.62 10.42 4.74 4.51 1.07 8.03 5.17 12.29 6.68q3.34 1.18 8.21 2.25 2.95.64 13.98 4.29 6.89 2.28 22.77 4.39.98.13 6.01.29c2.81.1 5.4.97 8 1.02q17.38.38 25.85-.09 31.08-1.73 62.12-11.06c32.07-9.64 61.53-23.43 87.47-44.51 39.13-31.8 61.51-75.26 67.17-125.55.85-7.57.6-15.34.6-23.05a.76.75-90 0 1 .75-.76h84.1q.63 0 .71.63c2.29 18.86 3.13 30.79 3.82 42.93.65 11.32-.08 22.81-.34 34.14-.1 4.36-.76 9.25-1.19 14.39q-.84 10.13-5.81 29.16-4.3 16.5-12.84 30.83a1.84 1.84 0 0 1-2.41.7l-65.52-32.71a1.59 1.59 0 0 0-1.66.16z" />
  <path fill="#c52627"
    d="M338.96 692.31c-53.3-25.78-92.91-71.49-112.15-127.36q-2.77-8.07-5.59-16.12a.77.77 0 0 1 .28-.89l.23-.17q.27-.19.42.1 16.14 31.22 40.89 56.1 4.04 4.06 8.34 7.89c29.53 26.32 64.95 40.93 104.65 47.71q20.64 3.53 30.97 4.13 6.33.38 10.43.71c10.91.9 21.87.62 32.8.57 5.38-.03 11.06-.64 16.67-1.01 13.81-.9 28.29-3.78 40.35-7.25 43.38-12.48 79.75-36.17 107.35-70.26 5.5-6.78 10.84-15.18 16.1-22.93a1.07 1.07 0 0 1 1.49-.29l49.23 33.01a.84.83 33.7 0 1 .23 1.14q-10.87 16.99-24.49 31.78c-32.62 35.45-73.41 63.03-119.65 77.16-30.9 9.44-63.1 13.26-95.35 11.14-5.25-.35-10.63-.19-15.79-1.11-2.25-.4-5.02-.54-6.82-.77-28.18-3.56-55.04-10.92-80.59-23.28z" />
</svg>